<svg xmlns="http://www.w3.org/2000/svg" width="640" height="384" viewBox="0 0 240 144"><defs><linearGradient id="sky" x2="0" y2="1"><stop stop-color="#426d98"/><stop offset="1" stop-color="#b1cedd"/></linearGradient></defs><rect width="240" height="144" fill="url(#sky)"/><circle cx="150" cy="49" r="24" fill="#ffe4a4"/><path d="M48 101c-24 0-24-32 0-34 2-31 47-38 60-11 24-9 43 10 40 26 25-3 30 28 3 28H48z" fill="#edf4fa" fill-opacity=".84"/><path d="M136 117c-17 0-19-24-1-28 5-19 31-21 40-3 19-5 31 9 29 20 16 0 18 17 1 17h-69z" fill="#ffffff" fill-opacity=".4"/></svg>
